<?xml version="1.0" encoding="UTF-8"?>
<svg id="_Шар_2" data-name="Шар 2" xmlns="http://www.w3.org/2000/svg" viewBox="0 0 1542.17 1542.21">
  <defs>
    <style>
      .cls-1 {
        opacity: .5;
      }

      .cls-2 {
        fill: #00a43c;
        stroke-width: 0px;
      }
    </style>
  </defs>
  <g id="_Шар_1-2" data-name="Шар 1">
    <g class="cls-1">
      <path class="cls-2" d="M922.61,1541.81c-.91-8.29-2.52-16.43-5.2-24.36-2.62-7.74-3.14-15.46-.41-23.43,3.22-9.41.64-18.04-5.99-24.93-6.97-7.24-8.29-14.93-4.23-23.75,3.37-7.33,3.41-15.94,7.11-22.73,5.63-10.34,9.98-21.06,14.63-31.58,6.06-13.72,16.01-27.1,26.22-39.46,14.51-17.56,49.49-9.93,58.62,7.79,1.66,3.23,2.34,7.4,7.11,8.84,2.99-3.32.27-6.27-.67-9.29-2.98-9.59-6.45-19.07-8.76-28.82-2.3-9.7,2.01-16.32,11.27-15.46,16.52,1.53,30.48-5.2,44.92-10.89,7.99-3.15,15.78-6.91,20.79,4.52,1.79,4.09,7.83,4.2,10.08,3.58,14.12-3.91,25.98,6.18,39.41,5.37,4.15-.25,8.02,2.8,9.76,5.24,7.97,11.16,24.26,14.44,27,30.86,2.28,13.68,11.13,26.01,5.92,41.22-2.46,7.17,3.94,16.39-4.18,22.99-.33.27.04,2.14.62,2.7,10.55,10.25-.1,13.97-6.28,15.69-23.46,6.54-40.82,23.2-61.1,34.94-5.45,3.16-9.82,7.65-14.22,12.11-9.5,9.61-12.99,19.75-5.74,32.69,4.52,8.08,7.14,17.23,10.6,25.89-3.38.07-6.75.15-10.13.22-6.39-2.87-7.68-9.46-10.64-14.77-8.07-14.52-14.5-17.49-30.47-13.73-15.65,3.69-29.95,10.43-43.27,19.31-5.47,3.64-11.04,7.01-17.22,9.28-21.86-.01-43.71-.02-65.57-.03Z"/>
      <path class="cls-2" d="M1417.27,1130.16c-20.05,8.9-38.57,20.26-55.83,33.85-11.44,9-24.18,15-39.49,12.14-9.55-1.79-15.42-7.14-17.49-16.78-2.26-10.5-4.74-20.96-7.29-31.4-1.29-5.28-.65-10.32,1.05-15.34,3.46-10.19,1.21-19.27-6.03-26.85-6.6-6.91-7.48-14.22-4.22-22.92,2.9-7.76,3.88-16.39,7.62-23.66,5.2-10.11,10.18-20.01,14.43-30.64,5.64-14.09,15.98-27.91,26.74-40.29,16.07-18.5,50.56-7.96,58.43,8.65,1.53,3.23,2.33,7.34,8.74,8.65-2.99-9.96-5.7-18.94-8.38-27.94-1.18-3.98-2.76-7.92-3.33-11.99-1.17-8.29,2.59-14.79,11.07-13.93,17.27,1.74,31.82-5.68,46.93-11.47,7.64-2.93,14.65-5.5,18.92,4.73,1.66,3.97,6.69,4.03,9.06,3.6,14.17-2.56,26.76,4.44,40.21,5.95,6.65.75,14.29,3.77,16.84,11.59,1.22,3.74,3.26,4.95,6.63,5.2-.02,35.23-.05,70.47-.07,105.7-27.86,14.76-56.17,28.91-74.93,55.88-2.76,8.44.2,15.79,4.36,22.91l2.43,5.3c.55,4.49,3.08,8.24,4.52,12.39.68,1.96.88,4.3-1.16,5.51-2.66,1.57-4.4-.28-5.81-2.38l.03.05c-2.39-5.78-4.43-11.74-8.51-16.65l.07.12c-4.32-11.81-10.63-16.28-23.08-15.79-7.85.31-15.51,1.8-22.45,5.81Z"/>
      <path class="cls-2" d="M.58,383.54c7.83,3.02,13.24,8.45,16.7,16.1.83,1.82,1.33,5.74,4.6,4.17,2.38-1.14,1.04-3.59.21-6.1-3.42-10.4-6.59-20.96-8.77-31.68-1.68-8.23,2.87-14.56,11.2-13.87,17.19,1.44,31.8-5.6,46.87-11.62,7.48-2.98,14.61-5.5,18.99,4.78,1.95,4.58,8.24,4.71,10.91,4.05,14.04-3.44,26.03,5.05,39.35,5.77,5.66.31,13.49,3.39,15.88,11.28.47,1.55,1.46,4.02,2.5,4.17,15.96,2.4,16.03,16.66,20.01,27.41,4.14,11.19,8.2,22.32,3.76,35.29-2.28,6.65,3.37,15.59-4.34,21.87-.28.22.27,2.06.89,2.7,10.2,10.42-.57,13.94-6.61,15.63-24.5,6.86-42.54,24.36-63.61,36.79-5.42,3.2-9.45,8.04-13.66,12.69-7.12,7.87-10.18,16.34-5.5,26.54,1.52,5.85,2.4,11.89,6.09,17,1.4,1.94,2.06,4.48-.02,6.46-2.92,2.79-4.77-.4-6.95-1.56-13.3-27.51-20.02-30.39-49.4-20.76-13.91,4.56-26.08,12.64-38.83,19.53-.24-14.16-.7-28.32-.68-42.48.05-48.06.26-96.12.41-144.18Z"/>
      <path class="cls-2" d="M493.49,106.66c-29.08-.72-52.45,13.29-75.12,29.1-7.38,5.15-14.42,10.84-22.03,15.62-8.4,5.27-17.8,7.75-27.82,6.51-11.87-1.47-17.88-7.31-20.3-18.95-1.76-8.47-3.46-16.97-5.74-25.3-1.89-6.91-2.33-13.61-.03-20.42,3.33-9.83,1.13-18.69-5.84-25.9-7.01-7.26-7.88-14.99-4.07-23.79,2.48-5.74,4.47-11.61,5.51-17.81,1.13-6.73,3.8-12.62,9.92-16.34,3.28-2,4.81-4.84,4.62-8.65,6.92-.19,13.84-.55,20.76-.55,72.79-.04,145.58-.03,218.37,0,4.84,0,9.69.29,14.53.45.69,3.42,1.76,7.06-.97,9.92-3.67,3.84-4.89,7.05-.15,11.16,3.04,2.64,1.44,5.85-1.24,7.99-2.4,1.92-5,3.98-7.86,4.89-29.37,9.38-52.56,28.72-76.38,47.06-8.73,7.32-13.05,15.95-8.38,27.4,1.08,2.65,0,4.74-2.37,6.15-2.61,1.56-4.58.22-6.48-1.49-2.82-2.53-5.11-5.73-8.91-7.03Z"/>
      <path class="cls-2" d="M.5,1399.28c13.99,2.36,25.47-5.29,37.75-9.6,8.77-3.08,17.67-9.04,23.28,4.35.98,2.34,3.6,1.81,5.57,1.89,13.95.54,27.53,3.01,41.03,6.55,8.02,2.11,15.96,3.37,19.24,12.52.53,1.47,1.93,3.53,3.16,3.71,15.08,2.26,15.28,15.74,18.76,25.9,3.61,10.52,9.43,21.27,4.54,33.14-1.09,2.64-1.83,5.29-.68,8.05,2.22,5.29,1.97,10.03-2.42,14.26-1.82,1.76-2.86,3.89-.19,6.12,7.84,6.53,1.6,10.26-3.26,13.32-3.71,2.34-8.26,3.44-12.53,4.79-11.06,3.5-20.67,9.27-28.73,17.63-32.53.06-65.06,0-97.58.3-6.04.05-8.52-1.31-8.46-7.98.38-44.98.38-89.96.5-134.94Z"/>
      <path class="cls-2" d="M351.89,1541.77c-.52-3.81-1.65-8.37,1.04-11.09,11.1-11.23,16.89-26.05,26.87-38.12,16.34-19.78,50.67-9.93,59.81,8.04.63,1.23,1.13,2.55,1.9,3.69,1.25,1.85,2.07,5.25,5.13,3.46,1.95-1.14.74-3.67.07-5.7-3.44-10.53-7.17-21-9.96-31.7-2.44-9.34,2.11-16.43,11.13-15.55,16.89,1.65,31.14-5.36,45.9-11.13,7.84-3.07,15.03-5.94,19.89,4.78,1.78,3.94,8.15,4.65,11.09,3.79,14.06-4.1,25.85,5.22,39.16,5.78,5.31.22,13.66,3.38,15.59,11.55.52,2.21,1.6,4.13,3.8,4.48,10.49,1.7,12.83,9.89,15.97,18.28,6.02,16.04,11.59,31.88,5.81,49.21-13.48.18-26.97.53-40.45.52-70.92-.05-141.85-.19-212.77-.3Z"/>
      <path class="cls-2" d="M1541.91,572.75c-7.97,2.97-13.4,9.61-20.34,14.08-10.75,6.92-21.93,11.66-35.16,9.85-10.66-1.45-17.17-7.27-18.93-17.69-1.63-9.59-3.68-19.04-6.55-28.31-1.92-6.21-1.5-12.34.52-18.38,3.3-9.87.97-18.63-5.91-25.87-6.55-6.9-8.22-14.39-4.43-22.8,3.45-7.66,3.66-16.51,7.5-23.63,5.58-10.36,10.71-20.25,14.52-31.77,4.09-12.33,14.41-23.98,22.9-35.3,12.24-16.33,28.37-16.39,45.8-10.66.03,63.5.06,126.99.1,190.48Z"/>
      <path class="cls-2" d="M1419.69,1541.52c5.6-16.17,4.15-35.33,19.99-47.18,3.04-2.28,2.68-5.5,1.75-8.52-1.08-3.54-1.42-7.48.92-9.95,11.28-11.85,17.24-27.31,28-39.63,15.44-17.69,49.83-8.84,58.38,8.41.92,1.85,1.81,3.73,2.87,5.5.87,1.46,2.03,3.19,3.97,2.54,3.08-1.04,1.36-3.37.8-5.12-2.94-9.2-6.17-18.31-8.97-27.56-4.44-14.66-.86-19.74,14.3-20.86.13,45.35.23,90.69.46,136.03.02,4.53-.85,7.04-6.2,6.99-38.76-.34-77.52-.46-116.27-.65Z"/>
      <path class="cls-2" d="M1541.78,60.95c-14.74,6.27-28,14.92-40.61,24.73-11.82,9.2-23.97,17.71-40.11,17.02-13.78-.59-20.73-6.53-23.45-20.14-1.77-8.8-3.8-17.56-6.12-26.23-1.48-5.53-1.9-10.83.04-16.28,3.98-11.2,1.8-21.01-6.63-29.47-2.73-2.74-4.48-6.11-5.17-9.97,38.73-.16,77.46-.25,116.18-.55,5.27-.04,6.33,2.35,6.26,6.93-.25,17.98-.27,35.97-.38,53.95Z"/>
      <path class="cls-2" d="M101.18,1.11c-10.63,8.74-23.62,14.28-32.95,24.86-7.76,8.8-13.25,17.81-7.42,29.83,2.06,9.43,7.32,17.63,10.2,26.75.62,1.96,1.84,4-.58,5.4-3.14,1.82-4.09-.9-5.34-2.91-3.24-5.2-4.62-11.47-9.15-15.93-2.62-3.62-5.2-7.28-7.87-10.87-4.62-6.21-10.46-8.09-18.24-6.55-9.89,1.95-19.53,4.57-29.01,7.87C.61,41.58.43,23.59.13,5.6.06,1.6,1.77.06,5.69.13c31.83.59,63.68-1.18,95.49.98Z"/>
      <path class="cls-2" d="M.53,952.22c3.06.07,5.8,1.69,6.8,4.11,7.08,17.31,17.64,33.92,12.46,54.02-.82,3.17-1.05,6.08.21,9.07,1.8,4.27,1.02,7.97-1.97,11.51-1.4,1.66-4.46,3.66-2.13,6.08,11.31,11.75-1.56,12.95-7.39,16.89-2.16,1.46-5.22,1.57-7.87,2.29-.03-34.66-.07-69.32-.1-103.98Z"/>
      <path class="cls-2" d="M985.01.62c-11.79,10.71-24.83,18.35-41.55,16.86-10.66-.95-18.2-5.78-20.38-16.97,20.64.04,41.28.07,61.93.11Z"/>
      <path class="cls-2" d="M1101.2.29c8.89,23.79,13.71,48.64,18.94,73.38.57,2.71,1.13,5.44,1.43,8.19.34,3.16,2.66,7.61-2.87,8.2-5.09.54-4.68-4.24-5.21-7.41-3.2-19.17-7.04-38.16-12.75-56.79-2.65-8.65-6.17-16.89-9.32-25.3,3.26-.09,6.52-.18,9.79-.27Z"/>
      <path class="cls-2" d="M724.32,1235.98c-6.87-9.61-15.44-11.74-27.17-9.05-24,5.5-44.32,17.6-63.58,32.07-9.74,7.31-19.27,14.82-31.59,17.42-19.65,4.15-30.45-3.16-34.11-22.86-1.33-7.14-3.12-14.22-5.09-21.22-1.84-6.53-2.28-12.88,0-19.39,3.55-10.15,1.2-19.21-6.04-26.84-6.2-6.53-7.5-13.5-4.41-21.94,2.98-8.11,3.99-17.12,7.96-24.64,5.31-10.09,10-20.13,14.27-30.68,5.58-13.79,15.02-27.88,26.32-39.32,16.41-16.61,46.3-12.97,58.43,7.09,2.01,3.32,2.79,7.75,9.47,10.03-3.34-11.02-6.19-20.35-8.98-29.69-1.09-3.65-2.45-7.28-2.96-11.02-1.14-8.41,2.91-14.64,11.23-13.89,17.95,1.63,33.15-5.89,48.89-12.1,6.65-2.62,12.86-3.72,16.45,4.73,2.25,5.29,8.63,5.49,11.64,4.66,14.09-3.85,25.87,5.41,39.23,5.86,5.48.18,13.53,3.67,15.77,11.49.62,2.18,1.39,4.08,3.6,4.62,5.99,1.47,11.44,3.81,13.29,10.25,4.34,15.15,13.54,29.33,10.39,46.01-.91,4.84-2.3,9.2-.31,14.1,1.6,3.95-.24,7.37-3.02,10.38-1.62,1.76-3.48,3.76-.91,6.21,9.33,8.88.51,13.15-5.33,14.67-22.24,5.8-38.8,21.18-57.82,32.37-8.74,5.14-16.25,11.72-22.59,19.76-4.79,6.07-7.36,12.47-5.74,20.21,1.29,5.9,3.26,11.52,6.81,16.48l-.15-.21c-1.17,3.92,6.51,9.06-.03,11.32-5.2,1.8-6.05-5.15-8.03-8.83-1.6-2.99-2.64-6.3-5.89-8.05Z"/>
      <path class="cls-2" d="M593.44,644.31c-8.43-15.33-20.91-16.06-36.18-11.47-21.34,6.42-39.95,17.4-57.4,30.78-11.07,8.49-22.18,16.82-36.88,17.81-16.9,1.14-25.04-5.28-28.18-21.94-1.34-7.14-3.03-14.25-5.04-21.23-2.07-7.2-2.76-14.19-.26-21.44,3.35-9.75,1.26-18.7-5.78-25.96-6.99-7.21-8.34-14.98-4.21-23.76,3.44-7.32,3.41-15.93,7.13-22.72,5.65-10.31,9.98-21.01,14.58-31.51,5.99-13.66,16-27.11,26.27-39.41,14.66-17.57,48.88-10.31,58.63,7.75,1.71,3.17,2.27,7.41,7.19,8.75,2.84-3.42.07-6.4-.83-9.34-2.84-9.27-6.27-18.38-8.67-27.76-2.56-9.99,1.93-17.49,11.28-16.55,17.33,1.74,31.79-5.78,46.92-11.52,7.38-2.8,14.19-4.77,18.22,4.68,1.96,4.6,7.16,4.53,9.8,3.96,14.28-3.09,26.77,4.5,40.21,6.08,6.39.75,14.26,3.52,16.52,11.89.48,1.78,1.14,3.64,2.95,3.94,15.3,2.52,15.63,16.34,19.36,26.79,3.75,10.48,9.27,21.34,3.88,33.18-1.36,2.99-.92,6.09.24,9.12,1.63,4.25,1.21,8.07-2.2,11.45-2.36,2.34-3.95,4.8-.32,7.73,6.01,4.84,2.09,8.26-2,11.49-.81.64-1.65,1.46-2.6,1.68-24.69,5.88-42.69,23.93-64.35,35.31-12.17,4.04-18.06,14.75-24.37,24.4-3.02,4.62-2.53,11.3,1.05,16.72,1.14,1.72,1.5,3.87,2.52,5.68,2.05,3.62,5.19,8.3,1.25,11.16-5.62,4.08-4.97-4.9-8.72-5.77Z"/>
      <path class="cls-2" d="M1090.12,421.91c-8.31,6.24-16.46,12.69-24.96,18.64-7.78,5.44-16.44,8.93-26.1,9.3-15.85.6-23.86-6.05-26.61-21.55-1.27-7.15-2.8-14.3-4.87-21.26-2.24-7.54-2.98-14.83-.43-22.43,3.28-9.8.86-18.59-6.18-25.85-6.66-6.86-8.01-14.49-4.11-22.87,3.41-7.33,3.7-15.68,7.15-22.72,5.29-10.81,10.51-21.48,15.06-32.62,5.35-13.08,15.33-25.88,24.93-37.79,16.46-20.41,51.25-10.14,59.91,7.12,1.57,3.13,3.03,9.51,6.65,7.68,4.76-2.4-.43-7.02-1.43-10.6-2.51-9.01-5.69-17.85-7.85-26.94-2.23-9.38,2.25-16.32,11.34-15.43,17.29,1.7,31.73-5.86,46.86-11.61,7.16-2.72,14.07-5.24,18.17,4.51,1.85,4.41,7.32,4.63,9.89,4.09,14.24-2.98,26.59,5.69,40.23,5.51,4.14-.06,7.92,2.95,9.7,5.4,8.05,11.07,24.23,14.38,27.06,30.71,2.37,13.66,11.42,25.99,6.09,41.16-2.54,7.23,4.29,16.53-4.25,23.03-.35.27.12,1.91.49,2.8,4.31,10.43,2.97,12.63-8.93,17.26-30.72,11.97-57.65,29.62-79.9,54.15-5.9,5.23-4.62,12.03-2.5,17.89,2.15,5.94,4.07,12.25,8.14,17.41v.03c1.51,2.64,2.05,5.34-1.26,6.8-2.66,1.17-4.32-.9-5.84-2.87-1.41-1.83-1.32-4.7-3.95-5.68l.13.16c-6.44-16.16-14.64-20.54-30.99-17.24-19.14,3.85-36.3,11.78-51.62,23.8Z"/>
      <path class="cls-2" d="M338.84,1100.67c-.47-.63-.94-1.27-1.4-1.9-4.14-9.24-11.52-12.65-21.09-10.79-11.35,2.21-22.98,3.86-32.6,11.21-16.53,8.87-31.99,19.33-46.85,30.76-9.94,7.64-21.15,11.75-33.96,10.47-11.52-1.16-17.51-6.23-20.23-17.5-2.44-10.1-4.77-20.22-7.1-30.34-1.27-5.54-.78-10.95.91-16.41,3-9.68,1.39-18.72-5.75-26.03-7.01-7.18-7.63-14.87-4.31-23.88,2.75-7.45,3.31-15.98,7.18-22.68,5.93-10.28,10-21.15,14.71-31.66,6.16-13.74,15.83-27.26,26.28-39.45,15.37-17.94,49.65-9.25,58.61,8.02,1.67,3.22,2.46,7.33,8.98,9.33-3.08-10.23-5.8-19.1-8.41-27.99-1.17-3.98-2.56-7.97-3.11-12.05-1.25-9.4,2.56-15.17,11.7-14.24,16.19,1.65,29.81-5.02,43.93-10.55,8.34-3.27,15.93-7.01,21.9,4.46,2.14,4.11,9.06,4.11,14.14,3.93,16.36-.58,33.7,1.12,45.56,11.19,9.62,8.16,23.9,13.9,26.3,30.16,2.02,13.68,10.79,25.95,5.83,41.25-2.31,7.15,2.91,16.28-4.4,23.01-.28.26.35,2.14,1.03,2.7,8.49,6.96,2.2,12.28-3.34,13.77-21.69,5.84-38.24,20.63-57.28,31-13.49,4.68-22.14,15.03-29.97,26.1-4.38,6.18-4,12.95-.03,19.44.74,1.31,1.47,2.62,2.21,3.93.52,7.67,6.02,13.52,7.59,20.81.46,2.13,3.12,4.52.28,6.29-2.66,1.66-4.17-1.15-5.71-2.85-.9-1-1.57-2.21-2.8-2.9l.13.18c-1.94-6.14-3.61-12.43-8.93-16.77Z"/>
      <path class="cls-2" d="M996.37,877.94c-9.19,6.78-18.31,13.65-27.57,20.32-10.1,7.27-21.07,11.93-33.92,10.86-11.64-.97-18.79-5.66-20.5-16.99-2.68-17.8-12.2-34.77-5.51-53.95,2.34-6.7-1.48-14.31-7-19.78-6.75-6.68-7.56-14.2-4.28-22.9,2.67-7.11,3.75-14.88,6.84-21.76,5.07-11.27,11.02-21.94,15.52-33.66,5.13-13.37,14.64-27.23,25.75-38.39,17.1-17.16,47.44-12.72,59.41,8.72,1.6,2.87,2.2,6.83,8.37,7.38-2.81-9.22-5.46-17.82-8.06-26.44-1.2-3.98-2.67-7.93-3.36-12-1.65-9.7,2.38-16.22,11.73-15.26,16.22,1.68,29.79-5.05,43.91-10.52,8.34-3.23,16.37-7.23,21.64,4.68,1.75,3.96,7.69,3.78,10.21,3.2,14.01-3.25,26.08,4.79,39.31,5.93,5.87.5,13.47,3.39,15.96,11.15.63,1.97,1.25,4.3,3.54,4.79,6.55,1.4,12.09,4.35,13.8,11.13,3.93,15.5,14.37,29.71,9.69,46.94-.83,3.07-1.98,6.27-.68,9.15,3.18,7.06-.2,11.94-4.68,16.66,3.02,13.48,1.64,15.79-12.91,19.58-7.66,2-14.56,6.33-22.65,7.02-2.46.21-4.64,1.92-5.83,4.03-5.21,9.25-14.08,13.99-22.8,18.91-7.67,4.33-13.65,10.59-19.54,16.91-8.67,9.31-12.86,18.87-4.44,31.27,2.43,3.58,8.65,11,2.55,14.42-6.02,3.37-5.19-7.06-9.44-9.42-.3-.17-.65-.24-.97-.36l.14.14c-7.57-13.19-12.39-15.38-26.58-12.54-17.4,3.48-33.66,9.49-47.62,20.8Z"/>
      <path class="cls-2" d="M1070.43,869.54c5.65.21,4.69,7.29,10.62,9.46-.47-8.3-3.42-15.08-7.61-20.75-4.39-5.94-3.56-10.39.57-15.55,9.91-12.41,19.32-25.31,34.88-31.49,2.2-.87,5.19-2.17,5.9-4.01,7.36-18.97,25.61-17.77,40.69-21.99,9.95-2.78,12.62-8.8,11-18.03,7.56,11.41,5.48,15.23-10.05,20.69-26.21,9.21-47.82,26.01-68.87,43.39-11.21,9.26-14.52,20.07-6.91,34.84,16.61,32.26,24.84,67.43,31.35,102.95.5,2.72.89,5.48,1.11,8.23.18,2.24-.53,4.23-3.12,4.52-2.37.27-4.06-.99-4.59-3.27-.7-3.02-1.18-6.11-1.62-9.18-5.08-35.29-15.79-68.69-33.34-99.8Z"/>
      <path class="cls-2" d="M593.44,644.31c2.41,1.61,4.82,3.22,7.35,4.91,3.97-5.72-1.02-9.63-3.18-12.96-6.26-9.67-5.76-17.93,2.08-26.19,6.59-6.93,10.09-17.58,22.01-17.96-6.08,5.6-12.44,10.81-17.74,17.31-6.43,7.9-7.71,15.66-3.21,24.88,17,34.78,26.88,71.77,33.24,109.79.58,3.48,3.34,8.59-1.88,9.78-6.47,1.48-5.3-5.11-5.99-8.59-3.31-16.61-6.73-33.16-10.74-49.64-4.51-18.51-14.85-34.15-21.95-51.33Z"/>
      <path class="cls-2" d="M493.49,106.66c1.33.23,2.72.29,3.99.71,3.97,1.33,5.52,8.97,10.68,5.72,4.64-2.92-.02-8.18.14-12.44.33-8.72,3.11-15.32,11.33-19.03-9.74,10.8-10.22,21.7-3.53,34.97,16.51,32.74,24.67,68.22,30.87,104.15.61,3.55,3.06,8.6-2.23,9.66-5.5,1.1-4.76-4.45-5.43-8-6.19-33.03-12.47-65.94-30.2-95.44-4.51-7.51-9.03-14.6-15.63-20.31Z"/>
      <path class="cls-2" d="M724.32,1235.98c8.94,1.2,5.98,13.22,13.95,16.06,0-3.98,0-7.24,0-10.5,12.6,23.43,19.47,48.72,24.37,74.67,1.54,8.17,3.3,16.29,4.91,24.45.65,3.3,2.56,7.8-2.14,8.81-5.8,1.24-4.99-4.42-5.7-7.8-2.42-11.52-4.61-23.09-6.88-34.65-5.01-25.49-16.15-48.51-28.52-71.04Z"/>
      <path class="cls-2" d="M89.09,571.43c5.1,1.38,9.35,1.42,4.82-5.29-3.52-5.23-4.78-10.57-3.94-16.62,18.89,35.2,27.17,73.68,34.58,112.41.57,2.98,1.64,6.78-2.88,7.46-4.22.64-4.67-2.75-5.22-6.06-3.23-19.45-7.28-38.7-12.79-57.67-3.5-12.06-8.96-23.15-14.58-34.23Z"/>
      <path class="cls-2" d="M1172.61,415.2c3.27.22,3.9,3.37,5.82,5.09,4.96,4.42,5.06.27,5.24-3.34,8.15,14.61,13.56,30.31,17.46,46.45,4.16,17.17,7.49,34.54,11.14,51.83.68,3.21.89,6.76-3.45,7.14-3.48.31-4.06-2.71-4.6-5.66-2.32-12.6-4.79-25.17-7.35-37.73-4.59-22.59-14.02-43.34-24.27-63.78Z"/>
      <path class="cls-2" d="M55.95,69.12c7.66,3.29,6.47,13.28,13.89,18.18-.06-12-10.05-20.27-9.03-31.5,18.73,35.29,27.19,73.73,34.49,112.53.53,2.82.98,6.05-2.61,6.82-4.18.91-4.88-2.3-5.53-5.66-2.78-14.25-5.84-28.44-8.68-42.68-4.11-20.57-13.5-39.06-22.52-57.7Z"/>
      <path class="cls-2" d="M347.64,1117.26c2.53,1.5,5.06,3,7.88,4.67.03-9.58-8.99-16.32-7.24-26.01,18.09,34.12,26.08,71.33,33.09,108.82.57,3.05,2.46,7.67-2.81,8.28-4.86.57-4.69-3.97-5.26-7.34-5.16-30.45-11.15-60.67-25.65-88.41Z"/>
      <path class="cls-2" d="M1471.21,1156.61c3.78,1.63,7.45,2.68,5.3-3.7-1.31-3.89-3.88-7.39-2.85-11.82,12.33,23.06,19.24,47.88,24.01,73.42,1.65,8.82,3.59,17.59,5.42,26.37.71,3.39,2.14,7.64-2.76,8.38-4.93.74-4.68-4.12-5.24-7.28-3.24-18.36-6.6-36.66-12.07-54.56-3.23-10.59-7.24-20.79-11.83-30.81Z"/>
      <path class="cls-2" d="M1090.12,421.91c.62-1.2.93-2.89,1.92-3.51,18.65-11.91,37.78-22.66,60.89-22.37,9.87.12,18.99,9.19,19.81,19.33-13.97-19.63-15.13-19.92-38.7-14.03-16.03,4-29.59,13.07-43.92,20.59Z"/>
      <path class="cls-2" d="M996.37,877.94c4.32-9.72,14.72-11.15,22.61-15.19,9.94-5.08,21.44-7.84,32.81-8.05,9.59-.18,17.36,3.92,18.78,14.98-8.06-12.56-19.06-13.08-32.48-9.71-15.04,3.78-28.02,11.53-41.72,17.96Z"/>
      <path class="cls-2" d="M283.76,1099.19c11.71-11.63,27.03-12.69,41.99-12.89,5.96-.08,10.93,5.32,11.7,12.47-7.58-11.05-17.87-10.34-29.28-7.56-8.39,2.04-16.3,5.25-24.4,7.98Z"/>
      <path class="cls-2" d="M346.07,1091.99c-4.83-4.16-6.04-10.27-3.43-14.97,7.64-13.72,15.88-27.42,33.43-30.57-7,6.07-15.21,10.57-21.47,17.69-7.16,8.16-12.48,16.47-8.53,27.84Z"/>
      <path class="cls-2" d="M1417.27,1130.16c11.29-9.42,31.83-9.36,42.33-.26,3.47,3.01,3.37,6.44,3.19,10.23-8.4-15.5-21.24-17.4-36.56-12.06-2.88,1-5.97,1.41-8.97,2.09Z"/>
      <path class="cls-2" d="M1183.65,416.91c-7.6-7.93-11.16-17.32-10.39-28.35.23-3.35,1.22-5.96,4.75-6.95-4.69,8.23-2.28,15.89,1.57,23.64,1.82,3.66,2.74,7.75,4.07,11.65Z"/>
      <path class="cls-2" d="M1471.24,1135.79c-6.11-6.75-8.65-14.18-4.36-22.91-2.2,8.33,3.39,15.18,4.36,22.91Z"/>
      <path class="cls-2" d="M338.84,1100.67c7.26,3.31,8.78,9.67,8.93,16.77-4.48-4.79-5.98-11.17-8.93-16.77Z"/>
      <path class="cls-2" d="M1462.73,1140.01c5.86,4.01,8.12,9.85,8.51,16.65-4.25-4.83-6.74-10.56-8.51-16.65Z"/>
      <path class="cls-2" d="M738.42,1241.76c-5.65-4.1-7.15-9.91-6.81-16.48,3.34,5.05,5.54,10.58,6.81,16.48Z"/>
    </g>
  </g>
</svg>