<?xml version="1.0" encoding="utf-8"?>
<!-- Generator: Adobe Illustrator 28.2.0, SVG Export Plug-In . SVG Version: 6.00 Build 0)  -->
<svg version="1.1" id="Шар_1" xmlns="http://www.w3.org/2000/svg" xmlns:xlink="http://www.w3.org/1999/xlink" x="0px" y="0px"
	 viewBox="0 0 1080 1080" style="enable-background:new 0 0 1080 1080;" xml:space="preserve">
<style type="text/css">
	.st0{opacity:0.5;fill:url(#SVGID_1_);}
	.st1{fill:#23B866;}
	.st2{fill:#04A744;}
	.st3{fill:#008B35;}
	.st4{fill:#05A541;}
	.st5{fill:#05A745;}
	.st6{fill:#10AB3F;}
	.st7{fill:#12AB43;}
	.st8{fill:#00A23C;}
	.st9{fill:#E8D970;stroke:#73C996;stroke-width:30;stroke-miterlimit:10;}
	.st10{opacity:0.6;fill:#E8D970;stroke:#F5FFF9;stroke-width:10;stroke-miterlimit:10;}
	.st11{fill:#00993F;}
	.st12{fill:#00983A;}
	.st13{fill:#007E31;}
	.st14{fill:#00A03C;}
	.st15{fill:#2ABC6F;}
	.st16{fill:#00A13D;}
	.st17{fill:#FFFFFF;stroke:#D4FFE5;stroke-width:40;stroke-miterlimit:10;}
	.st18{opacity:0.8;fill:#FFFFFF;stroke:#A2EDC0;stroke-width:20;stroke-miterlimit:10;}
</style>
<g>
	<radialGradient id="SVGID_1_" cx="540" cy="540" r="519.8298" gradientUnits="userSpaceOnUse">
		<stop  offset="6.806647e-02" style="stop-color:#007E31"/>
		<stop  offset="0.1594" style="stop-color:#058135;stop-opacity:0.902"/>
		<stop  offset="0.275" style="stop-color:#158942;stop-opacity:0.778"/>
		<stop  offset="0.4035" style="stop-color:#2F9657;stop-opacity:0.6401"/>
		<stop  offset="0.5416" style="stop-color:#53A874;stop-opacity:0.4919"/>
		<stop  offset="0.6872" style="stop-color:#82C09A;stop-opacity:0.3356"/>
		<stop  offset="0.8392" style="stop-color:#BADCC8;stop-opacity:0.1726"/>
		<stop  offset="0.9937" style="stop-color:#FCFEFD;stop-opacity:6.737590e-03"/>
		<stop  offset="1" style="stop-color:#FFFFFF;stop-opacity:0"/>
	</radialGradient>
	<circle class="st0" cx="540" cy="540" r="519.8"/>
	<g>
		<g>
			<path class="st1" d="M133.4,994.7c-1.1-2.8-3.3-2.4-5.6-1.8c-25.8,8-36.6,2.2-52.3-23.9c-4.4-7.3-13.4-11.6-15.4-21.4
				c-1.1-5.4,3.3-11.4-2.1-16.1c-7.8-14-7.9-18.5,2.7-29.6c4.9-5.1,3.6-11,5.4-16.5c5.1-5.2,10.1-10.4,15.1-15.6
				c5.7-13.8,15.9-22.2,30.4-25.3c6.3-1.3,12.7-1.7,15.8,5.3c5.4,12.1,14,21.9,21.7,32.3c-3.3,5.7-8.9,6.7-16.9,3
				c3.2,1.5,6.3,3.2,9.6,4.5c3.6,1.5,10.6,0,8.6,6.8c-1.7,5.9-6.7,8.7-13.6,6.8c-15.4-4.3-31.6-5.8-45.9-13.7
				c-1.6-0.7-1,1.8-0.2,0.3c0.2-0.4,1-0.4,1.2,0.3c1.7,6.2,7.2,3.9,11.2,5.2c13.3,4.2,27.9,4.3,39.9,12.8
				c-17.6,4.7-33.4-6.1-50.4-4.9c11.9-1,22.8,4.4,34.4,5.8c5.6,0.7,11,2.3,16.8,1c6-1.3,11.2,1.6,12.2,7.2c1.4,7.6-5.6,7.6-10.6,8.3
				c-12.6,1.8-25.2-0.5-37.8-0.7c-4.4-0.1-8.6-0.3-10.6,0.2c10.5-0.3,23.2-0.5,35.8,3.6c-14,4.6-28.5,4.9-42.1,7.3
				c7.1-1.8,15.1-1.4,22.9-2.8c9.2-1.6,18.9-0.9,27.4-6.4c2.8-1.8,7.7-3.2,11.2-0.1c4.2,3.7,0.2,7.1-0.9,10.6c-1.9,6-1,13.7-8,15.7
				c-0.2,0.1,0.6-0.6,1.5-0.9c7-2.3,8.5-13.8,17.7-11.5c3.9,1,3.6,8.6,10.5,8.1c4.9-0.4,5.1,5,5.6,8.9c0.9,7.5,0.1,14.7-1.8,22.1
				c-1.2,4.6-1.9,9.4-2.8,14.1c-0.8,4.3,0.1,8.7-0.7,13c0.9-21.4,6.8-42,10.8-62.9c0.4-2.1,1.2-4.2,2.1-6.2c1.8-3.5,3.6-8.2,8-7.7
				c5.6,0.7,5.4,6.2,5.2,10.5c-0.4,6.9-1.2,13.4-5.3,19.8c-5.6,8.9-6.6,19.8-7.2,30.2c-0.4,6.9-0.6,13.7-1.5,20.6
				c1.7-14.7,0.9-29.7,5.8-44c0.9-2.6,0.2-7.1,4.8-6.4c5.5,0.9,3.1,5.2,2.4,8.4c-3.1,14.9-6.4,29.8-6.3,45.2
				c-0.1-5.6-0.1-11.2,1.1-16.7c4.3-19.5,5.8-39.3,6.2-59.3c0.1-4.7-0.7-10,5.8-11.5c1.2,0.5,2.2,1.4,2.8,2.6
				c-0.7,23.1-0.6,46.3-2.6,63c2.2-14.6,1.1-35.9,3.2-57c1.3-0.7,2.5-0.7,3.7,0.1c4.6,14.9,6.7,30.2,5.4,45.6
				c-0.8,9.6-0.5,19.1-0.5,28.6c-0.4-21.2,1.4-42.5-0.9-63.6c5.8-3.3,8.7,5.1,15.4,3.1c-6.6-3.8-12-7.8-15.9-13.3
				c-2.6-3.7-6.3-8.6,2.7-9.3c14.2,11,29.2,19.3,48.2,15.2c3.8-0.8,7.5,1,9,4.1c5.2,10.9,9.2,22.8,6.4,34.5
				c-1.9,7.6-7.7,14.3-8.7,22.8c0,0-2.3,4.2-4.7,7.7c-12.2,17.4-40.1,25.9-44.6,27.3c-13.3,3.9-29.2,8.6-48.8,3.8
				c0,0-21.4-5.3-34.7-20.7c-5.2-6-6.7-11-7.2-12.9C132.2,1002.3,132.8,997.5,133.4,994.7z"/>
			<path class="st2" d="M206.3,927c-3.4,21.9-6.7,43.8-10.2,65.6c-1.6,9.9-2.9,19.8-3.2,29.8c-4.8-19.9,1.9-39.2,3.3-58.8
				c-10.1,18.8-6.4,40.1-10.8,60c-3.2-15.2-0.1-30.1,1.5-44.9c1.7-15,8.9-29.1,7.3-44.9c-12.4,49-15.9,69-15.7,75.9
				c0,0.8,0.2,5.6-0.6,5.8c-0.9,0.1-2.5-5.8-3.1-7.8c-1.6-5.7-3.7-19.6-1.4-57.4c-0.6,0.9-2.8,4-3.4,4.9c-1.1,1.5-2.1,3-3.2,4.7
				c-3-4.4,2.4-7.3,1.1-10.9c-3.1-0.9-3.1,2.1-4.3,3.5c-2.4,3-3.1,10.6-8.7,6.4c-4.9-3.7,2.4-5.9,3.9-8.9c1.1-2.1,2.8-3.9,3-7
				c-7.3,5.9-14.5,12-22,17.5c-2.9,2.1-6.9,5.8-9.9,0.2c-2.5-4.6,1.9-6,4.8-7.7c5.8-3.4,14.8-4.4,8.5-15.5c-2.1-3.6,6.4-3.3,7.9-9.7
				c-23.8,7.6-47.9,6.2-71.2,11.1c15.1-7.3,31.6-7.6,47.8-10c-14.9-0.9-29.8-4.5-44.8-0.4c21.9-11.2,46.6-1.6,69.4-10.5
				c-23.5-7-46.9-14.6-75.4-12.5c23.3-9.3,42.2,2.4,61.8,2.1c-18.2-6.2-36.7-10.3-56.5-11c1.9-4.8,7.2-1.1,10.1-4.6
				c-3.4-1.4-6.4-2.7-12.5-5.1c24.9-0.2,44.6,17.3,67.1,9.3c-9.2-7.6-20.7-9.9-30.1-19.5c12-0.4,18.9,16.6,30.9,6.1
				c4-1.5,7.3,1,10.7,2.2c1.7,1.1,3.4,2.3,5.1,3.4c4.2,3.6,9.5,3.8,14.6,4.6c2.6,0.4,5.6,0.3,6.6,3.1c1.1,3.4-1.3,5.6-3.8,7.5
				c-2.5,1.9-6.8,2.3-3.9,7.5c2.7,4.9,5.7,2.2,8.7,1.4c2.9-0.8,5.9-1.2,8.9-1.6c3.7-0.5,8.8-0.6,11.5,2.4
				C209.3,916.5,209,921.9,206.3,927z"/>
			<path class="st3" d="M206.3,927c-2.6-13.3-8.8-15.3-23.7-7.5c-4.8,2.5-10.5,7.3-8-4.1c0.1-0.4,0.4-0.9,0.3-1.2
				c-3.2-7.7-0.9-13,7.2-16c-4.7-6-15-1.2-18.1-9.6c6,0.2,11.7,3.1,17.9,1.7c1.7-0.4-0.5,0,1.2-0.5c13.1-3.2,20.8,1.4,22.9,13.8
				c2.7,5.2,5.5,10.3,8.2,15.5c1.1,2.5,4.1,4.5,2.5,7.9c1.2,8.4,8.3,11.3,14.3,15.2c4.9,3.1,11,4.9,13.2,11.6
				c-7.1-6.8-22.5,14.1-24.9-7.9c-4.7-2.1-4.5-7.7-7.7-10.9l-0.1-0.1C207.4,933.9,208.1,929.7,206.3,927L206.3,927L206.3,927z"/>
			<path class="st4" d="M205.9,903.6c-2.4-14.6-13.3-13.8-24.1-13.3c14.6-6.6,23.8-18.6,31.9-31.8c10.6-17.3,22.9-33.2,42.3-41.6
				c12.3-5.3,24.1-5.9,35.6,3.5c5.2,4.2,4.7,7.6,2.2,12.1c-1.2,2.2-2,5.4-5.2,5.3c-3-0.1-4.3-2.8-4.9-5.4
				c-3.5-13.6-12.6-12.3-22.6-8.7c-19.8,7.2-30.7,23.8-41.8,40.1C211.2,875.6,203.2,887.9,205.9,903.6L205.9,903.6z"/>
			<path class="st5" d="M216.6,927c-0.8-2.6-1.7-5.3-2.5-7.9c14.9,13.8,31.3,23.8,53,20.3c4.6-0.8,9.4,0.6,11.3,4.9
				c5.1,11.1,8.8,23.2,6.5,35.2c-5.3,27.4-25.1,43.5-48,55.8c-21,11.2-44,14-66.9,7.4c-11-3.2-20.2-11.2-29-18.9
				c-0.9-1.4-0.8-2.7,0.3-4c17.9,14.2,37.8,24.5,61.1,22.6c6.2-0.5,12.5-1.9,18.6-4.1c5.3-1.9,10.4-4.2,15.1-7
				c9.2-5.4,17.5-12.6,27-18c5.5-3.1,8.4-8.7,9.5-15.1c0.5-3,0.4-7,2.3-8.7c13.5-12.6,1.8-26.2,1.8-39.2c0-4.4-4.4-8.1-9.5-7
				C247,947.6,231.5,938.3,216.6,927L216.6,927z"/>
			<path class="st6" d="M58.8,931.1c3.1,1.7,4.2,4.1,3.4,7.6c-0.9,3.9-1.2,8.4,1.2,11.5c10.2,13,16.3,28.8,30.5,39
				c11.3,8.1,22.4,4.5,33.9,3.7c-15.7,9.5-34.3,6.2-47.2-10c-6-7.5-10.5-16.2-17.5-23.2c-7.6-7.7-2.8-19.4-7.8-28.2
				C56.4,930.1,57.6,930,58.8,931.1L58.8,931.1z"/>
			<path class="st7" d="M158.8,885.2c-3.9,0.8-7.4-0.4-10.7-2.2c-5.5-7.3-12-13.6-16.5-21.7c-10.2-18.5-32-18.3-43.2,0.2
				c-1.9,3.2-2.1,7.8-7.1,8.4c2.6-6.5,4.3-13.3,10.1-18.1c18.5-15.3,32.1-13.2,43.7,7.6C140.9,870.1,149.6,877.8,158.8,885.2
				L158.8,885.2z"/>
			<path class="st7" d="M58.8,931.1c-1.2,0.1-2.3,0.2-3.5,0.3c-7.3-10.9-5.7-21.6,3.1-30.2c4.8-4.7,3.9-11.2,7.7-15.7
				c1.3,7.4,1.3,13.7-5.6,19.5C51.9,912.3,54.5,922,58.8,931.1L58.8,931.1z"/>
			<path class="st8" d="M141.3,1019.8c-0.1,1.3-0.2,2.6-0.3,4c-9.4-7.9-13.1-17.3-7.6-29.1C138.2,1002.3,133.2,1013.1,141.3,1019.8
				L141.3,1019.8z"/>
			<path class="st2" d="M211.6,934.9c6,1.2,5.6,7,7.7,10.9c0.2,25.9,0.5,51.9,0.7,78.2c-5-10.2-6.9-21.4-4.9-32
				C218.7,972.5,214.6,953.8,211.6,934.9z"/>
			<path class="st2" d="M206.3,927.1c1.7,2.6,3.5,5.2,5.2,7.8c-5.1,9.5-1.6,19.6-2.4,29.5c-1.3,16.2-2.3,32.5-5.2,48.6
				C204.4,984.3,207.4,955.7,206.3,927.1L206.3,927.1z"/>
		</g>
		<path class="st9" d="M303.7,830.6c-16.2,5.6-30.3,5.1-43.9-1.2c-69.6-32.4-139.2-64.6-208.5-97.6c-28-13.3-38.9-43.9-25.9-72
			c31.9-69.4,64.2-138.6,97-207.6c13.4-28.3,45.5-39.1,72.9-26.1c27.7,13.2,39.2,44.2,26,72.9c-22.5,49-45.4,97.9-68.6,146.6
			c-4,8.3-2.9,11.7,5.6,15.6c49.4,22.6,98.6,45.6,147.7,68.8c21.4,10.1,33.7,30.8,31.7,53.5C335.6,806.6,322.8,822.2,303.7,830.6z"
			/>
		<path class="st10" d="M311.3,828.5c-16.2,5.6-30.3,5.1-43.9-1.2c-69.6-32.4-139.2-64.6-208.5-97.6c-28-13.3-38.9-43.9-25.9-72
			c31.9-69.4,64.2-138.6,97-207.6c13.4-28.3,45.5-39.1,72.9-26.1c27.7,13.2,39.2,44.2,26,72.9c-22.5,49-45.4,97.9-68.6,146.6
			c-4,8.3-2.9,11.7,5.6,15.6c49.4,22.6,98.6,45.6,147.7,68.8c21.4,10.1,33.7,30.8,31.7,53.5C343.1,804.5,330.4,820,311.3,828.5z"/>
		<g>
			<path class="st1" d="M971.6,866.1c-2.3,1.2-1.7,3.1-1,4.9c9.4,21.3,5.5,31.1-15.3,47.1c-5.8,4.5-8.6,12.6-16.8,15.3
				c-4.5,1.5-10.1-1.7-13.5,3.4c-11.2,8-15,8.6-25.6,0.6c-4.9-3.7-9.8-2-14.6-3c-4.9-3.8-9.9-7.6-14.8-11.4
				c-12.4-3.5-20.5-11.4-24.6-23.6c-1.8-5.3-2.7-10.7,3-14.1c9.8-5.8,17.4-14.1,25.5-21.8c5.2,2.2,6.6,7,4.2,14.2
				c0.9-2.9,2.1-5.7,2.9-8.7c0.9-3.2-1-9,4.9-8.1c5.2,0.9,8.1,4.8,7.1,11c-2.2,13.6-1.9,27.6-7.3,40.6c-0.4,1.4,1.6,0.7,0.2,0.1
				c-0.4-0.1-0.4-0.8,0.2-1c5.1-2.1,2.6-6.6,3.3-10.1c2.2-11.8,1-24.3,7.1-35.4c5.8,14.6-1.9,29.2,0.8,43.6c-2-10.1,1.5-19.9,1.5-30
				c0-4.9,0.9-9.6-0.8-14.5c-1.7-5,0.3-9.7,4.9-11.2c6.4-2,7,4.1,8.1,8.2c2.8,10.6,2,21.6,3.1,32.4c0.4,3.8,0.6,7.4,1.2,9.1
				c-1.3-9-2.7-19.8-0.4-31c5.3,11.5,7,23.9,10.4,35.3c-2.2-5.9-2.7-12.8-4.7-19.3c-2.3-7.8-2.6-16.1-8.2-22.8
				c-1.8-2.2-3.5-6.3-1.2-9.6c2.7-4,6.1-0.9,9.2-0.2c5.4,1.1,11.8-0.5,14.2,5.3c0.1,0.2-0.6-0.4-1-1.2c-2.7-5.8-12.6-5.9-11.6-14
				c0.4-3.4,7-3.9,5.9-9.8c-0.8-4.2,3.8-4.9,7.1-5.7c6.3-1.5,12.6-1.5,19.1-0.7c4.1,0.6,8.2,0.7,12.4,1c3.7,0.3,7.4-1,11.2-0.7
				c-18.4,1.3-36.6-1.7-54.9-3.1c-1.9-0.1-3.7-0.6-5.5-1.2c-3.2-1.2-7.4-2.3-7.3-6.1c0.1-4.8,4.7-5.3,8.5-5.5
				c5.9-0.3,11.6-0.2,17.5,2.6c8.2,3.9,17.6,3.7,26.6,3.2c5.9-0.3,11.8-0.9,17.7-0.8c-12.8,0-25.5,2.1-38.3-0.6
				c-2.4-0.5-6.1,0.5-5.9-3.5c0.3-4.8,4.1-3.2,6.9-2.9c13.1,1.2,26.2,2.5,39.3,0.9c-4.8,0.6-9.6,1.2-14.4,0.7
				c-17.1-1.8-34.2-1.1-51.3,0.6c-4.1,0.4-8.5,1.6-10.4-3.8c0.3-1.1,1-2,1.9-2.6c19.9-1.7,39.7-4,54.1-4
				c-12.8-0.4-30.8,2.6-49.1,2.9c-0.8-1-0.9-2.1-0.3-3.2c12.3-5.4,25.2-8.7,38.5-9.1c8.3-0.3,16.4-1.5,24.5-2.3
				c-18.1,2.4-36.5,2.9-54.4,7c-3.4-4.6,3.5-7.9,1.1-13.5c-2.6,6-5.5,11.1-9.8,15c-2.9,2.6-6.7,6.3-8.2-1.4
				c8-13.3,13.7-26.9,8.2-42.8c-1.1-3.2,0.1-6.6,2.6-8.1c8.8-5.5,18.6-10.1,28.9-8.8c6.7,0.8,13,5.2,20.3,5.2c0,0,3.8,1.6,7,3.3
				c16.1,8.7,26.1,31.8,27.7,35.5c4.7,11,10.2,24.1,8,41.4c0,0-2.4,18.8-14.3,31.8c-4.6,5-8.7,6.8-10.3,7.4
				C978.2,866.4,974.1,866.3,971.6,866.1z"/>
			<path class="st2" d="M906.5,810.3c19.1,0.7,38.1,1.4,57.2,2.3c8.6,0.4,17.2,0.5,25.8-0.2c-16.6,6.1-33.7,2.3-50.7,2.9
				c17.1,6.8,35,1.5,52.4,3.4c-12.7,4.3-25.8,3.1-38.6,3.1c-13,0.1-25.8-4.7-39.1-1.9c43.1,5.8,60.6,6.8,66.5,6
				c0.7-0.1,4.8-0.7,5-0.1c0.2,0.7-4.7,2.7-6.4,3.4c-4.7,1.9-16.4,5.1-49,6.8c0.8,0.4,3.7,2,4.5,2.4c1.4,0.8,2.8,1.5,4.3,2.3
				c-3.5,3-6.4-1.3-9.4,0.1c-0.4,2.7,2.1,2.5,3.4,3.3c2.8,1.8,9.4,1.6,6.4,6.8c-2.7,4.6-5.3-1.5-8-2.5c-1.9-0.7-3.6-2-6.3-1.9
				c5.7,5.7,11.7,11.2,17.2,17.1c2.1,2.2,5.6,5.3,1.2,8.4c-3.7,2.5-5.3-1-7-3.4c-3.5-4.7-5.2-12.3-14.1-5.8
				c-2.9,2.1-3.5-5.1-9.1-5.8c8.8,19.6,10,40.4,16.5,59.9c-7.8-12.2-9.6-26.3-13.2-39.9c0.7,12.9-1,25.9,4,38.4
				c-11.8-17.7-6-39.7-15.8-58.4c-3.7,20.8-7.9,41.6-3.2,65.8c-10.2-19-2.1-36.3-4.3-53.1c-3.5,16.2-5.2,32.5-3.9,49.4
				c-4.3-1.2-1.7-6-5-8.2c-0.9,3-1.6,5.8-3.2,11.2c-2.6-21.3,10.4-39.9,1.4-58.3c-5.6,8.6-6.4,18.7-13.7,27.7
				c-1.5-10.2,12.4-17.8,2.2-27.1c-1.7-3.3,0.1-6.3,0.8-9.4c0.8-1.6,1.6-3.1,2.4-4.7c2.7-4,2.3-8.5,2.5-13c0.1-2.3-0.3-4.8,2-5.9
				c2.8-1.3,5,0.5,6.8,2.5c1.8,2,2.6,5.6,6.8,2.6c3.9-2.8,1.4-5.1,0.4-7.6c-1-2.4-1.6-4.9-2.3-7.5c-0.8-3.1-1.4-7.5,0.9-10.1
				C897.2,808.9,901.9,808.6,906.5,810.3z"/>
			<path class="st3" d="M906.5,810.3c-11.2,3.5-12.3,9-4.1,21c2.6,3.8,7.3,8.2-2.7,7.2c-0.4,0-0.8-0.2-1.1-0.1
				c-6.3,3.5-11.1,2-14.4-4.6c-4.6,4.6,0.4,13-6.4,16.5c-0.4-5.1,1.5-10.4-0.3-15.5c-0.5-1.4,0,0.4-0.5-1
				c-4.1-10.9-0.9-17.9,9.5-20.9c4.2-2.9,8.3-5.7,12.5-8.6c2.1-1.2,3.4-4,6.5-2.9c7.1-1.9,8.8-8.2,11.6-13.7
				c2.2-4.5,3.1-9.9,8.7-12.5c-5.1,6.8,14.2,17.8-4.3,22.1c-1.3,4.3-6.2,4.6-8.6,7.6l-0.1,0.1C912.3,808.7,908.6,808.5,906.5,810.3
				L906.5,810.3L906.5,810.3z"/>
			<path class="st4" d="M886.5,813c-12.3,3.5-10.5,12.8-9.1,21.9c-7.1-11.9-18.3-18.6-30.4-24.2c-15.9-7.4-30.7-16.3-39.7-32.1
				c-5.8-10-7.4-20-0.5-30.8c3.1-4.9,6.1-4.7,10.2-3.1c2,0.8,4.8,1.1,5,3.9c0.2,2.6-2,3.9-4.1,4.7c-11.3,4.3-9.3,12-5.2,20.2
				c8.1,16.2,23.4,23.9,38.4,31.8C862.1,811.2,873.3,816.8,886.5,813L886.5,813z"/>
			<path class="st5" d="M905.5,801.5c-2.2,1-4.3,2-6.5,2.9c10.4-14.2,17.3-29.2,12.2-47.3c-1.1-3.9-0.4-8.1,3.1-10.2
				c9-5.4,19-9.8,29.5-9c23.9,1.8,39.7,17.2,52.4,35.6c11.7,16.9,16.3,36.3,12.9,56.5c-1.6,9.7-7.6,18.4-13.3,26.7
				c-1.1,0.9-2.3,1-3.4,0.1c10.4-16.7,17.2-34.8,13.3-54.5c-1-5.2-2.9-10.5-5.3-15.5c-2.1-4.4-4.7-8.5-7.5-12.2
				c-5.5-7.3-12.5-13.8-18.1-21.3c-3.2-4.4-8.3-6.4-13.8-6.7c-2.6-0.2-6,0.3-7.6-1.1c-12.1-10.4-22.6,1-33.7,2.3
				c-3.8,0.4-6.5,4.6-5.1,8.8C920.1,773.5,913.7,787.6,905.5,801.5L905.5,801.5z"/>
			<path class="st6" d="M924.5,936.2c1.1-2.8,3.1-4,6.2-3.7c3.4,0.4,7.3,0.2,9.7-2.1c10.1-10,23-16.8,30.4-29.9
				c5.9-10.4,1.7-19.6-0.2-29.4c9.7,12.5,8.7,28.7-3.9,41.4c-5.8,5.9-12.8,10.6-18.2,17.2c-5.8,7.2-16.3,4.3-23.4,9.4
				C923.9,938.3,923.7,937.4,924.5,936.2L924.5,936.2z"/>
			<path class="st7" d="M875.4,855.1c1.1,3.3,0.4,6.4-0.8,9.4c-5.7,5.4-10.5,11.6-17,16.3c-14.8,10.5-12.5,29.2,4.4,37
				c3,1.3,6.9,1.1,7.9,5.2c-5.8-1.6-11.8-2.4-16.4-6.9c-14.9-14.3-14.5-26.2,2.2-38.1C864.2,871.9,870,863.7,875.4,855.1
				L875.4,855.1z"/>
			<path class="st7" d="M924.5,936.2c0.2,1,0.4,2,0.6,3c-8.6,7.3-17.9,7-26.2,0.3c-4.5-3.6-9.9-2.2-14.2-5
				c6.2-1.8,11.6-2.4,17.2,2.9C909.1,943.9,917.2,940.7,924.5,936.2L924.5,936.2z"/>
			<path class="st8" d="M992.3,856.9c1.1,0,2.3-0.1,3.4-0.1c-5.8,8.8-13.5,12.9-24.2,9.4C977.7,861.2,987.4,864.5,992.3,856.9
				L992.3,856.9z"/>
			<path class="st2" d="M912.8,805c0.4-5.3,5.4-5.4,8.6-7.6c22.2-2.7,44.4-5.5,66.9-8.3c-8.2,5.2-17.6,8-26.9,7.4
				C944.2,795.3,928.7,800.6,912.8,805z"/>
			<path class="st2" d="M906.6,810.3c2-1.8,4.1-3.5,6.1-5.3c8.6,3.4,17-0.6,25.4-0.8c14-0.5,28-1.2,42.1-0.3
				C955.7,806.3,931,806.6,906.6,810.3L906.6,810.3z"/>
		</g>
		<path class="st1" d="M984.6,171.6c-0.3,5,3.3,5.9,7,6.5c43.8,5.8,55.9,21.7,61.4,71.2c1.5,13.9,11.9,26.4,8.3,42.4
			c-2,8.8-12.7,14.7-7.9,25.3c2,26.1-0.8,32.9-24.3,42.1c-10.9,4.3-12.9,13.9-19.3,20.8c-11.1,4.3-22.1,8.6-33.2,12.9
			c-17.9,16.7-38.8,22.1-62.5,16.8c-10.3-2.3-20-6.2-19.9-18.7c0.2-21.6-5.8-42.1-10.2-62.9c8.7-6.2,17.8-3.8,27.2,7.1
			c-3.8-4.4-7.3-9-11.2-13.2c-4.4-4.6-15.7-7.3-8.2-16c6.5-7.6,15.8-8.4,24.8-0.8c19.9,16.9,43,30.2,58.8,51.8
			c1.9,2.1,2.7-2,0.4-0.3c-0.6,0.5-1.7-0.1-1.5-1.3c1.6-10.3-8.1-10.8-13.1-15.3c-16.9-15.3-38.5-25.5-50.6-46.4
			c29.4,5,45.5,31.8,71.7,41.7c-18.4-6.7-30.9-22.1-47.2-32c-7.9-4.8-14.7-11-24.3-13c-9.8-2.1-15.5-10-13.3-19
			c3.1-12.3,13.5-7.5,21.4-5.1c20,5.9,37.2,18,55.8,26.8c6.5,3.1,12.6,6.4,15.9,7c-15.8-6.8-34.9-15.1-50.7-29.9
			c24,2.7,45.8,12.2,67.6,17.8c-11.8-2.2-23.5-8.2-36-11.5c-14.9-3.9-28.7-11.5-45.2-9.2c-5.4,0.8-13.6-0.6-16.7-7.5
			c-3.8-8.3,4.6-10.7,8.6-15.1c7-7.7,10.8-19.7,22.6-17.9c0.4-0.1-1.3,0.6-2.9,0.4c-12-1.4-22.1,14.7-34.2,5
			c-5.1-4.1,0.6-15.3-10.1-19.2c-7.5-2.8-4.2-11-2.3-17.1c3.8-11.7,9.9-22,17.7-31.6c4.9-6,9.3-12.7,13.8-19.1
			c4.1-5.8,5.8-13,9.9-18.9c-16,31.3-38.8,57.8-59.1,86.2c-2.1,2.9-4.6,5.5-7.4,7.8c-5,4-11,9.8-17.1,6c-7.8-4.9-3.9-12.9-0.5-19.2
			c5.4-9.9,11-19,21.4-25.8c14.4-9.4,23.3-25,31.3-40c5.3-9.9,10.2-20.1,16.3-29.6c-12.5,20.8-21.7,43.6-38.7,61.5
			c-3.1,3.3-5.2,10.4-11.5,6.2c-7.6-5.2-1.1-9.8,2.1-14.1c14.8-20.1,29.9-40,40.3-63c-3.7,8.4-7.5,16.7-13.1,24.1
			c-19.7,26.1-35.5,54.6-49.7,84c-3.4,7-5.7,15.4-16.5,13.2c-1.5-1.6-2.2-3.6-2.4-5.7c16.8-34,32.5-68.5,46.9-91.9
			c-13.3,20.3-26.1,52.7-43.7,82.6c-2.4,0.2-4.2-0.7-5.5-2.6c3.3-25.3,10.7-49.5,23.1-71.5c7.7-13.7,13.7-28,20.3-42.1
			c-13.9,31.8-31.2,62.2-42.1,95.3c-10.9,1-9.5-13.5-20.9-15.1c7.2,10.1,12.6,19.8,14.6,30.7c1.4,7.2,3.6,17.1-10.4,12.1
			c-13.7-26-30.3-48.7-61.4-55.5c-6.3-1.4-10.5-6.6-10.6-12.3c-0.2-19.7,1.9-40.3,14.1-55.7c7.9-10,21.3-15.9,28.5-27.9
			c0,0,6.3-4.7,12.3-8.2c30-17.6,77.3-11.2,85-10.1c22.4,3.3,49.3,7.1,75.1,27.7c0,0,28.2,22.5,37.6,54.5c3.7,12.5,2.5,20.9,1.9,24
			C991.5,161,987.4,167.8,984.6,171.6z"/>
		<path class="st2" d="M829.9,222.3c20-30.2,39.8-60.6,60-90.7c9.1-13.6,17.8-27.5,25.1-42.2c-6.4,32.9-29.5,57.1-45.1,85.3
			c27.9-21.1,36.9-55.3,57.1-81.9c-5.6,24.8-20.4,44.9-32.9,65.8c-12.7,21.2-33.1,37.3-41.6,61.8c51.9-64.4,70.8-91.8,75.2-102.1
			c0.5-1.2,3.5-8.5,4.8-8.2c1.4,0.4-0.2,10.4-0.8,13.7c-1.6,9.6-7.9,31.8-37.2,86.4c1.5-0.9,6.9-4.1,8.4-5c2.6-1.6,5.2-3.1,8-4.7
			c1.4,8.7-8.5,9.2-9.1,15.4c4,3.4,6-0.9,8.8-2.3c5.7-2.8,11.9-13.6,17.4-3.6c4.8,8.9-7.6,7.1-11.9,10.5c-3,2.4-6.9,3.9-9.2,8.4
			c14.9-3.7,29.7-7.9,44.7-11.1c5.7-1.2,14.1-3.9,14.8,6.4c0.5,8.5-6.9,7.6-12.4,8.1c-11,1.1-25.1-3.6-23.3,17.2
			c0.6,6.8-11.8,0.6-18.5,9c40.5,5,75.5,23.5,113.6,32.1c-27.5,0.6-52.1-10.3-77.9-17.8c21.6,11.6,41.2,27.1,66.4,31.3
			c-40.3,1.7-70.4-29.4-110.4-31.9c30.2,26.5,59.8,53.7,103.7,70.1c-40.9-2.1-61.1-32.3-90.5-45.4c22.8,21.6,47.6,40.5,76.5,55
			c-6.1,5.9-11.5-3.2-18.2,0c4.1,4.4,7.8,8.3,15.1,16.2c-37.2-16.7-54.5-56.2-93.4-59.7c8.4,17.6,24.1,28.9,31.5,49.5
			c-18.1-7.6-16.8-37.7-41.9-30.2c-7-0.5-10.1-6.5-14.5-10.6c-1.8-2.8-3.5-5.7-5.3-8.5c-3.8-8.2-11.6-12.1-18.6-16.8
			c-3.6-2.4-8.1-4.3-7.6-9.2c0.6-5.8,5.7-7.5,10.8-8.6c5-1,11.6,1.2,10.9-8.6c-0.7-9.2-6.9-7.2-12-8.1c-4.9-0.8-9.7-2.2-14.4-3.7
			c-5.9-1.8-13.5-5.2-15.5-11.4C818.2,236.1,822.4,228.1,829.9,222.3z"/>
		<path class="st3" d="M829.9,222.3c-5.3,21.6,2.6,28.8,30.1,27.4c8.8-0.5,20.6-3.7,9.1,11.5c-0.4,0.6-1.2,1.1-1.2,1.7
			c-0.4,13.6-7.6,19.9-21.6,18.9c3,12.1,21.5,12.1,20.4,26.7c-8.8-4.4-15.4-12.6-25.5-14.7c-2.8-0.5,0.7,0.4-2.1-0.1
			c-21.8-4.2-30-16.2-24.6-36.1c-0.6-9.6-1.1-19.1-1.7-28.7c0.1-4.5-3.1-9.5,1.6-13.5c3.9-13.3-4.6-22.4-10.9-32.3
			c-5.1-8-13.1-14.8-11.7-26.4c6,15,43-5.6,31.6,28.8c5.6,6.4,1.4,14.5,4,21.5l0,0.1c5.5,4.3,1.6,10.1,2.5,15.1L829.9,222.3
			L829.9,222.3z"/>
		<path class="st4" d="M814.5,257.5c-6.5,23.4,10.4,29.6,26.7,36.3c-26.3-0.2-48.2,11.4-69.2,25.5c-27.7,18.5-56.8,33.8-91.4,32.9
			c-22-0.5-39.9-7.7-50.5-29.5c-4.8-9.9-1.7-14.5,5-19.6c3.3-2.4,6.6-6.7,11.3-4.3c4.4,2.2,4.4,7.1,3.6,11.4
			c-4.1,22.6,10.4,26.9,27.7,28.3c34.4,2.8,62-14.4,89.5-31C787.4,295.5,807.7,282.7,814.5,257.5L814.5,257.5z"/>
		<path class="st5" d="M814.4,215.4c-0.5,4.5-1.1,9-1.6,13.5c-12.8-30.8-30.3-56.9-64.9-66.4c-7.4-2-13.5-7.4-13.5-15.1
			c0.1-20,2.8-40.6,14.4-56.9C775.4,53.4,816,43,858.4,40.4c38.9-2.4,75.1,9.2,104.6,34.8c14.1,12.2,22.4,30.5,30.2,48
			c0.4,2.7-0.7,4.6-3.2,5.7c-16.9-33.4-39.5-62.2-75.4-75.3c-9.5-3.5-19.9-5.7-30.4-6.6c-9.2-0.9-18.4-0.8-27.2,0.1
			c-17.3,1.8-34.6,6.7-52.4,8.3c-10.3,0.9-18.5,7.2-24.5,15.9c-2.8,4.1-5.4,10.1-9.3,11.4c-28.8,9.5-20.6,37.7-29.5,57.1
			c-3,6.6,1,15.1,9.3,16.9C783.3,164,800,188.4,814.4,215.4L814.4,215.4z"/>
		<path class="st6" d="M1052,317.1c-3.5-4.6-3.4-8.9,0.1-13.6c3.9-5.2,7.6-11.6,6.1-17.9c-6.3-26.2-4.6-53.9-18.7-78.9
			c-11.2-19.8-30.2-22-47.9-28.6c29.9-3.4,55.3,14.2,63.4,47.2c3.8,15.3,4.6,31.3,10.1,46.5c6,16.6-9.1,30.8-7.7,47.2
			C1055,320.2,1053.2,319.6,1052,317.1L1052,317.1z"/>
		<path class="st7" d="M871.9,317c6.4,1.4,10.7,5.7,14.5,10.6c3.2,14.5,8.6,28.5,9.7,43.6c2.5,34.4,35.1,49.1,64.4,29.2
			c5.1-3.5,8.5-10.1,16.3-7.7c-8.2,7.9-15.5,16.8-27.4,20c-38,10.1-56.8-2.2-59.7-41.1C888.2,351.7,880.6,334.3,871.9,317L871.9,317
			z"/>
		<path class="st7" d="M1052,317.1c1.8,0.6,3.6,1.3,5.4,1.9c3.3,21.2-6.3,35.9-25.3,42.9c-10.3,3.8-13.4,14-22.2,18.1
			c3.1-11.9,7.4-21.2,21.6-25.2C1049.5,349.7,1052.2,333.5,1052,317.1L1052,317.1z"/>
		<path class="st8" d="M990,128.8c1.1-1.9,2.1-3.8,3.2-5.7c8.6,18.2,7.7,34.7-8.6,48.5C982.6,156.8,997.5,144.2,990,128.8L990,128.8
			z"/>
		<path class="st2" d="M827.4,207c-8.1-5.9-3.5-14.1-4-21.5c17.4-38.7,34.8-77.5,52.4-116.8c0.4,18.6-4.3,36.5-14.5,51
			C842.5,146.3,835.9,176.8,827.4,207z"/>
		<path class="st2" d="M829.9,222.2c-0.8-5-1.7-10.1-2.5-15.1c14.1-10.6,15.8-28.1,23.7-42.2c13-23.3,25.6-46.7,41-68.7
			C871.7,138.5,847.9,178.9,829.9,222.2L829.9,222.2z"/>
		<path class="st11" d="M356.7,337.1c-8.9,29.4,1.8,54.9,18.7,79.7c22.6,33.3,45.4,66.3,78.1,90.8c13.7,10.3,29,17.1,45.6,19.7
			c16.4,2.6,28.4-1.8,30.9-20.3c0.9-6.8,1.3-15.8,9.3-16c10.3-0.2,10.6,11.3,14.8,18c4.2,6.6,4,11.3-3,17.2
			c-27.1,23.2-56,22.3-87.4,5.5c-33.1-17.7-57.9-44-78.7-74.9c-18.8-28-36.5-57.2-66.5-75.4c-1.1-1.8-1.5-3.7-1.2-5.8
			c0.7-0.7,1.3-1.4,2-2.2c1.8-0.8,3.7-1,5.7-0.8c10.5,4.2,20.5,9.1,24.2,20c-5.9-7.3-6.1-17.8-10.8-26.7
			C336.5,342.8,338.7,339.3,356.7,337.1L356.7,337.1z"/>
		<path class="st11" d="M177.5,154.5c8.9,4.5,15.6,7.9,11.2-7.9c-11-39.3,1.3-64.3,37.4-79.1c3.7-1.5,7.8-1.8,10.1-5.8
			c10.4-18.1,28.5-20.8,47.4-21.1c15.8-0.2,31.2-1.4,46.4-5.2c6.3-1.6,16.5-3,19.8,0.5c24.1,25.4,65.8,15.1,86.4,47.2
			c2.5,3.9,9.7,4.9,14.7,7.1c26.3,11.2,44.2,29.2,47.9,58.7c0.3,2.7-0.1,6.6,1.5,7.9c33,27.2,12.7,58.8,11.2,88.3
			c-0.9,16.9-11.1,27.2-30.3,24.1c-51-8.1-88.4,11.5-114.9,53.1c-1.4,2.2-3.6,3.9-5.4,5.8c-5.1-2.7-6-7.1-5.5-12.1
			c3-16,14-25.1,27-32.4c27.4-20.3,56.8-35.1,93.5-28.5c14.1,2.5,20.1-2.9,20.8-16.7c0.7-13,2.1-26,5.6-38.5
			c1.3-4.8,2.2-10.2-1.1-14c-13.5-15.6-17-34.9-23.3-53.3c-5.2-15.3-18.3-22.9-31.9-28.6C433.5,98.9,422,93,412.5,82.9
			c-6.5-6.9-14.7-11.1-23.9-11.9c-13.5-1.2-25.6-4.9-35.5-15.4c-5.5-5.9-12.5-5.5-19.3-4.3c-11.4,1.9-22.7,4.4-34.4,3.9
			c-21.4-0.8-40.7,2.4-54,20.7c-2.3,3.2-6.6,4.5-10.3,6.1c-32.9,14.2-42.3,32-33.8,67.1c2.1,8.6,1.8,15.2-5.6,19.5
			c-7.5,4.4-14.3,2.4-19.7-5.2C175,160.1,175.3,157.1,177.5,154.5L177.5,154.5z"/>
		<path class="st12" d="M177.5,154.5c0.2,2.3,0.4,4.6,0.6,6.9c-6,3.1-11.9,0.5-17.9-1.3c-34-10.3-68.6,7-79,40
			c-3,9.5-7.6,17.1-16.4,21.9c-2.4,1.3,0.4-0.6-1.8,0.9c-22.7,14.8-9.6,42.2-18.4,61.1c-10.6,22.8-6.1,38.7,5.7,62.2
			c16.1,32,43.2,53.9,60.6,83.6c10.8,18.5,27.1,29.1,48.6,32.1c12.2,1.7,20.1-1.8,24.7-12.2c13.7-30.9,36.6-53.9,62-74.8
			c14.3-10.5,29.5-18.5,48.6-15.1c10.2,1.8,20.8,3.7,23.2,17c0.2,1.6,0.4,3.3,0.5,4.9c-39.5-20.8-78.1,8.5-103.6,44.3
			c-8.5,11.9-14.2,25.9-21.1,39c-6.8,13.1-17.3,18.1-32.1,13.6c-29.4-8.9-59.4-16.8-69.6-52.8c-2.1-7.2-9.5-11.8-15.9-16.4
			c-14.5-10.5-27.3-22.9-28.6-42c-0.5-7.4-5.4-10.6-9.9-15.1c-20.7-20.8-25.1-49-9.6-71.5c4.1-6,2.8-10.4,2.7-16.3
			c-0.4-23.6,3.5-45.8,26.5-56.8c8.3-4,6.9-10.4,8.6-16.5C77.5,147.8,141.4,126.9,177.5,154.5L177.5,154.5z"/>
		<path class="st13" d="M358.3,319c0.9,3.1,1.7,6.2,2.6,9.2c-1.4,3-2.8,5.9-4.2,8.9c-12.1,5.1-14.2,15.2-12.2,27.4
			c1,22.4-13,12.2-23.4,10l0,0c-11.7-12.5-26.4-16.8-42.5-18.3c-7.3-0.7-16.4-2.8-17.2-12.4c-0.7-8.5,7.5-10.4,13.8-12.3
			c7.8-2.4,15.5-4.4,20.5-11.7c3.4-4.9,10.7-7.9,14.2-4.2c15.8,16.8,24.9-0.5,36.7-4.2C352.4,310.8,357.2,311.8,358.3,319L358.3,319
			z"/>
		<path class="st14" d="M346.6,318c-2.3,1.4-5,2.3-6.8,4.2c-8.1,8.5-17.2,9.1-26.4,1.6c-4.6-3.7-13.6-6.8-12.2,0.4
			c3.6,18.9-7.6,12.1-16.5,12.6c-6.4,0.3-12.5,3.7-23,7.2c23.6,8.2,51,1.4,59.4,30.6c-1,0.8-2,1.5-3.1,2.1
			c-24.1-16.8-45.9-10.4-67,3.1c-25.6,11-42.8,31.2-58.4,53.1c-9.3,13-20.2,23.4-36.9,25.4c-4.8,0.6-10.1-0.4-12.2-5.9
			c-1.7-4.4,0.7-8.3,3.8-10.8c23.2-18.9,44.3-40.4,63.2-54.8c-12.8,7-27,22.8-44.7,33.9c-9.7,6.1-18.9,12.9-31,13.4
			c-5.5,0.2-11.6-0.8-13.6-7.3c-1.7-5.6,2.3-9.3,6.5-11.4c35.9-18.8,67.8-45.6,103.6-52.2c-8.6,2.3-22.7,6.8-35.6,14
			c-24.2,13.7-52.4,16.7-78.2,26.3c-5.6,2.1-13.1,2.4-15.9-5.2c-2.6-6.9,2.5-11.4,7.6-15c3.9-2.7,8.6-4.9,13-5.3
			c27.4-2.7,52.7-12,71.8-17.4c-13.2,3.9-32.9,10.6-53.5,14.5c-5.2,1-11.2,3.2-14.6-3.4c-2.9-5.6-0.1-10.7,3.1-15.2
			c2.8-3.9,6.6-7.6,11.2-8.1c35.7-4.2,63.2-33.3,101.7-28.6c-20.2-6.8-40.9-6.8-61.2-10.2c-7.2-1.2-17.2-2.7-16.5-12.4
			c0.6-9.2,10.6-10.8,17.7-9.3c21.5,4.5,45.2-11.8,62.9,8.9c-2.6-1.5-9.4-4.3-8.8-9.3c2.2-17.9-12.2-21.2-22.8-28
			c-17.1-11.1-34.6-21.4-51.7-32.6c-5.2-3.4-11.7-8.5-8.4-15.1c3.6-7.2,10.2-2.6,16.1-0.1c12.6,5.4,22.9,14.7,32.1,19.3
			c-16.7-10.6-35.4-24-58.9-28.2c-9.3-1.6-24-7.7-20-19.6c3.9-11.8,18.2-6.2,27.1-1.8c47,23.1,87.3,55.3,120.8,96.1
			c1.8,2.2,2.6-2.1,1,0.1c-0.2,0.3-0.7,0-1.5-0.9c-28.9-34.2-62.1-62.9-100.9-84.9c-7.4-4.2-16.5-10-11.7-19.2
			c5.2-9.8,14.8-3.3,21.7,0.8c21.6,13.1,43.4,26.3,54.5,45.6c-16.3-18.1-28.9-42.5-33.4-70.5c-1-6.4-3.3-13.7,4.5-15.5
			c7.1-1.7,8.5,5.8,10.3,10.9c15.9,43.5,40.3,82.9,63.4,122.9c-21.7-37.3-44.5-74.1-60-114.4c-0.7-2-1.7-3.9-2.2-5.9
			c-1.8-8.2-11-19.3,0-23.5c10-3.8,14.7,8.6,17.8,16.7c18.8,49.1,42.5,96.1,65.2,143.5c-14.1-29.5-28.5-58.9-42.3-88.5
			c-3.9-8.2-8.7-16.5-4.4-25.5c1.7-3.7,5.4-3.4,8.8-1.7c9.4,4.9,11.7,13.4,11.8,22.9c0,2.1,1,4,1.7,6c-0.6,2.7,2.7-0.8,0-0.5
			c-1.1,0.1-0.7-0.5-0.6-2c0.3-10,6-9.2,12.5-5.8c10.2,5.4,18,12.8,22.2,24.3c7.5,20.4,13.4,40.9,15.6,62.3
			c-1.8-14.7,4.3-28.3,3.7-42.8c-0.2-4.6,1.5-10.3,7.2-10.9c6.6-0.7,9.8,4.7,11.9,10c4.1,9.9,5,20.1,5.1,30.6
			c0.2,14.5,0.2,29,0.5,43.5C353.6,310.7,347.3,312.8,346.6,318L346.6,318z"/>
		<path class="st14" d="M321.1,374.5c8-3,21.2,5.3,23.4-10c6.3,15.1,12.5,30.1,20.8,50.1C348.1,399,334.6,386.7,321.1,374.5
			L321.1,374.5z"/>
		<path class="st15" d="M347.2,306.9c-2.1-27.2,0-54.7-10.6-81.7c6.4,26.9-13.5,50.4-2,77.9c-26.3-34.8-17.2-83.9-57.9-116.7
			c3.9,13.7,6.5,22.7,9,31.8c-1.2,0.6-2.4,1.1-3.7,1.7c-7.3-16.3-14.5-32.6-21.8-48.9c-1.5,0.6-3.1,1.2-4.6,1.8
			c17.7,42.4,35.3,84.7,53,127.1C278.3,242,240.7,188,217.9,126.7c11.3,53.8,44.2,98.5,65.8,147.9c-33.3-41.6-57.5-88.1-77.1-138.9
			c-0.7,17.7,1.5,25,16.1,53c8.6,16.5,17.6,32.8,25,50.1c-24.4-27.4-53.7-47.2-86.6-62.4c14.5,10.4,29.2,20.6,43.6,31.2
			c14.7,10.9,28.5,22.8,40.3,37.1c11.9,14.4,24.6,28.2,35.8,43.5c-44.4-46.1-92.8-85.5-154.5-103.9c34.3,15.8,66.5,35,95.1,60.5
			c-21.6-9.8-39.8-26.9-64-31.3c24.7,15.9,49.9,30.8,73.3,48.6c7.3,5.5,13.4,10,11.7,21.9c-2.1,15,17.6,13,23.1,23.6
			c-0.6,0.4-1.9,1.6-2.2,1.4c-30.2-24.3-63.3-6.7-94.9-12.2c31.2,9.3,65.6,2.7,93.9,25.6c-18.4,7-37.8,6.9-57.1,8.6
			c-5.4,0.5-6.6,13.5-17.8,14.3c-14.1,1-27.7,6.2-41.6,9.2c-8.6,1.9-14.6,5.9-15.9,17.1c29.4-6.8,58.2-13.4,86.8-20
			c-33,24.8-77,23-110.2,46.4c50.1-15,100.2-30,150.3-44.9c1.1,2.6,2.3,5.3,3.4,7.9c-54.5,3.9-89.5,43.3-133.4,66.7
			c40.2-8.2,64.7-47.4,107.2-51.8c-33.4,19.4-51.8,55.7-87.7,74.8c19.1-0.7,24.6-5.8,40.2-22.6c18.4-19.7,34.9-42.9,64.4-48.2
			c-25.4,19.3-46.2,42.1-57.9,72.9c-6.7,17.5-19,23.9-39,17c-25.3-8.8-48.2-18.9-56.3-47.9c-1.4-4.9-4.9-8.3-9.2-11.2
			c-4.7-3.1-9.1-6.6-13.7-9.8c-7.8-5.3-16.5-12.4-16.7-20.8c-0.5-29.6-41.5-43.6-31.4-76.8c2.3-7.6,0.6-16.9,9.6-20.9
			c5.7-2.6,4.6-6.8,3.6-12c-5.9-29.5,0-42.4,25.8-56.9c4.9-2.7,5.5-6.7,6.4-11.6c8.9-48.2,63.8-69,105.7-40.2c5.5,3,11,7.5,16.9,2.3
			c5.1-4.6,1.4-10.1-0.1-15.4c-11.4-40.9-0.4-61.5,39.1-74.2c2.5-0.8,6.1-1.5,6.9-3.4c10.6-24.9,33-23.5,55.1-24
			c10.8-0.3,21.6-2.1,32.3-4c14-2.6,27-4.8,35.4,12.2c3.6,7.3,11.4,7.9,18.3,7c9.3-1.2,19.3-0.3,25.4,6.3
			c16.8,18.2,39.2,26.3,59.5,38c6.9,4,12.6,9.1,16.1,16.3c10.2,20.9,17.5,43.2,26.7,64.3c8.3,18.9-0.6,46.6-9.8,68.5
			c-3.4,7.9-12.2,7.5-19.9,5.9c-35.4-7.3-64,6.9-91.3,24.9c-3.7-0.1-7.3,5.7-10.8,0.6c-3.3-4.7-0.7-9.8,2.4-13.1
			c15.8-17.1,34.6-29.5,59.1-30.3c5.9-0.2,12.1,0.4,17.8,1.4c-4.5-1.6-11.5,1.5-13.8-5.8c-1.9-5.7,3.2-8.4,6.5-11.5
			c8.3-7.7,17.7-14.3,23.6-24.4c-5.9,9.8-14.8,16.7-23.4,23.9c-3.1,2.6-7.1,5.5-10.8,1.8c-3.9-3.9,0.4-7.5,2-10.8
			c2.6-5.3,6.9-9.4,9-13.6c-5.3,8-10.6,17.4-16.3,26.4c-5.1,8-12.3,12.5-18.8-2.2c-6.7-15.2-2-56.9,11.1-70.6
			c5.4-5.7,9.5-11.9,13.2-18.7c-9.9,15.6-23.4,28.9-26.6,48.6c-0.8,5.1-5.5,10.4-11.8,8.7c-6.1-1.7-4.1-8.1-4-12.6
			c0.4-17.2,1.2-34.3,1.7-46.4c-3.2,32.5,1.5,71.2-10.2,107.7c-4.9,15.2-9.8,30.4-24.1,38.2C354.6,288.9,363.1,307.2,347.2,306.9
			L347.2,306.9z"/>
		<path class="st16" d="M347.2,306.9c8.3-10.4,3.5-24,6.6-35.7c6.9-0.7,2.3,7.3,8.3,8.1c35.8-50.9,29.7-114.7,37.2-167.7
			c0.5,22.3,1.1,51,1.8,80.2c6.1,0.2,3.9-5.5,5.4-8.3c6.9-12.6,4.4-30.5,23.6-36.6c6.6-2.1,8.5-16.8,13.6-28.1
			c4.3,12.4,0.1,20.8-4.9,28.3c-9.1,13.7-14.5,28.4-16.7,45.1c-1.8,13.7-2.4,13.3,3.1,28.8c1.1,3-1.9,7.2-4.2,14.8
			c19.2-17.2,28.8-36.3,42.3-59.4c-0.9,22.5-15.7,32.8-21.1,49.5c20.4-9.9,30.5-26.9,42.4-42.4c-4.2,23.7-21.8,37.6-38.3,54.1
			c12.8,7.8,26.7,2.6,41.1,9.8c-9.6,3.9-17.5,1.1-24.9,0.6c-30.9-2-55,11.3-76.6,30.3c-5.4,4.8-5,7.6,3,7.9
			c-10.1,10.9-20.2,21.8-30.4,32.7c-3.8-3-7.7-3.3-11.7-1C346.9,314.3,347,310.6,347.2,306.9L347.2,306.9z"/>
		<path class="st14" d="M86,377.8c8.5-2,17-3.9,30.9-7.2C105.5,381.7,96.2,381.8,86,377.8z"/>
		<path class="st14" d="M227.6,281.4c-7.7-3.9-15.4-7.8-23-11.7c0.5-1.2,1-2.4,1.4-3.6c8.1,3.5,16.2,7.1,24.3,10.7
			C229.4,278.3,228.5,279.8,227.6,281.4L227.6,281.4z"/>
		<path class="st17" d="M396.3,870.9c-0.3-7.9,2.1-15.2,4.5-22.5c70.6-211.8,141.2-423.7,211.9-635.5c9.9-29.7,32.7-44.9,61.2-41.2
			c32,4.1,54.4,35.5,45.4,66.7c-10.7,37-23.6,73.3-35.8,109.8c-59.4,178.3-118.9,356.6-178.2,535c-7.7,23.2-21.7,39-46.8,42.6
			C425.2,930.6,396,904.7,396.3,870.9z"/>
		<path class="st17" d="M732.7,730.8c-0.1-16,6.2-29.1,17.4-40.3c38-37.8,75.7-75.9,113.9-113.6c6.5-6.4,7-9.9,0.2-16.5
			c-38.5-37.8-76.7-75.9-114.5-114.4c-26.2-26.6-20.7-67.8,10.9-86.4c22.3-13.1,48.3-9.3,68.2,10.5c43.2,43,86.3,86.2,129.4,129.3
			c9.7,9.7,19.4,19.2,29,29c23.3,23.9,23.8,56.2,0.4,79.8C934.2,662,880.6,715.5,826.9,768.8c-17.3,17.2-38,21.7-60.9,12.4
			C745.5,772.9,732.8,753.2,732.7,730.8z"/>
		<path class="st18" d="M417.8,871.1c-0.3-7.9,2.1-15.2,4.5-22.5C493,636.8,563.6,424.9,634.3,213.1c9.9-29.7,32.7-44.9,61.2-41.2
			c32,4.1,54.4,35.5,45.4,66.7c-10.7,37-23.6,73.3-35.8,109.8c-59.4,178.3-118.9,356.6-178.2,535c-7.7,23.2-21.7,39-46.8,42.6
			C446.7,930.9,417.5,905,417.8,871.1z"/>
		<path class="st18" d="M752.6,733.4c-0.1-16,6.2-29.1,17.4-40.3c38-37.8,75.7-75.9,113.9-113.6c6.5-6.4,7-9.9,0.2-16.5
			c-38.5-37.8-76.7-75.9-114.5-114.4c-26.2-26.6-20.7-67.8,10.9-86.4c22.3-13.1,48.3-9.3,68.2,10.5c43.2,43,86.3,86.2,129.4,129.3
			c9.7,9.7,19.4,19.2,29,29c23.3,23.9,23.8,56.2,0.4,79.8c-53.3,53.7-106.8,107.2-160.6,160.5c-17.3,17.2-38,21.7-60.9,12.4
			C765.4,775.5,752.7,755.8,752.6,733.4z"/>
	</g>
</g>
</svg>
