<?xml version="1.0" encoding="utf-8"?>
<!-- Generator: Adobe Illustrator 28.2.0, SVG Export Plug-In . SVG Version: 6.00 Build 0)  -->
<svg version="1.1" id="Layer_1" xmlns="http://www.w3.org/2000/svg" xmlns:xlink="http://www.w3.org/1999/xlink" x="0px" y="0px"
	 viewBox="0 0 120 120" style="enable-background:new 0 0 120 120;" xml:space="preserve">
<style type="text/css">
	.st0{opacity:0.8;}
	.st1{fill:#EFC825;}
</style>
<g class="st0">
	<g>
		<path class="st1" d="M63.1,13.7c2.9,0.5,5.8,1.1,8.4,2.4c9.3,4.5,14.9,11.8,16.3,22.1c2,15.1-8.4,28.1-22,31
			c-15.4,3.3-30.9-7.1-33.6-22.7c-2.6-15.1,7.2-29.4,22.1-32.4c0.8-0.2,1.6-0.3,2.4-0.4C59,13.7,61,13.7,63.1,13.7z"/>
	</g>
	<g>
		<path class="st1" d="M60,120c-14.3,0-28.6,0-42.9,0c-2.7,0-3.8-1.1-3.8-3.9c0.1-19,14.2-36,32.8-39.6c2.4-0.5,4.8-0.7,7.2-0.7
			c4.6,0,9.2,0,13.8,0c9.6,0.1,18.1,3.5,25.3,9.7c7.5,6.5,12.1,14.6,13.9,24.4c0.4,2.3,0.6,4.5,0.5,6.8c-0.1,1.9-1.3,3.2-3.3,3.2
			c-5.6,0-11.3,0-16.9,0C77.7,120,68.8,120,60,120z"/>
	</g>
</g>
</svg>
